# Blender v2.74 (sub 0) OBJ File: ''
# www.blender.org
mtllib ship.mtl
o Icosahedron_glass
v -0.184521 0.237316 0.148781
v 0.184521 0.237316 0.142575
v -0.191795 -0.164454 1.568500
v 0.191795 -0.164454 1.568500
v -0.000000 0.003893 1.914903
v -0.000000 0.265726 1.562983
v 0.000000 -0.077493 -0.819072
v 0.000000 0.075088 -0.476855
v 1.240651 -0.061510 0.858515
v 0.386533 0.104024 1.553210
v -1.240651 -0.061510 0.895748
v -0.386533 0.104024 1.559415
v 0.072252 0.281557 -0.012007
v 0.000000 0.160943 -0.322941
v -0.072252 0.281557 -0.012007
v -0.000000 -0.203421 1.568130
v -0.039265 -0.027982 1.162264
v -0.303490 -0.047551 1.569607
v 0.039265 -0.027982 1.162264
v 0.303490 -0.047551 1.569607
v -0.000000 0.059950 1.159465
v 0.063532 0.025473 1.162308
v -0.063532 0.025473 1.162308
v 0.187567 0.213257 1.565683
v -0.187567 0.213257 1.565683
v -0.042591 0.054172 1.169178
v 0.068914 -0.005009 1.171518
v -0.000000 -0.040469 1.170738
v 0.042591 0.054172 1.169178
v -0.068914 -0.005009 1.171518
v 0.000000 0.259887 0.337190
v -0.165132 0.136688 -0.232795
v -0.136186 0.280301 0.075374
v 0.165132 0.136688 -0.232795
v 0.136186 0.280301 0.075374
v 0.000000 0.095313 -0.448883
v 0.053619 0.208172 -0.214746
v 0.000000 0.305077 0.065450
v -0.053619 0.208172 -0.214746
v 0.000000 0.259523 -0.128670
v 0.108948 0.169308 -0.239180
v -0.108948 0.169308 -0.239180
v 0.000000 0.292018 0.180225
vt 0.237134 0.691319
vt 0.326571 0.751095
vt 0.413285 1.084910
vt 0.368567 1.079827
vt 0.500000 1.468335
vt 0.500000 1.418725
vt 0.583993 0.810870
vt 0.673429 0.751095
vt 0.586715 1.084910
vt 0.541996 1.089992
vt 0.500000 1.369114
vt 0.458003 1.089992
vt 0.416007 0.810870
vt 0.500000 0.691319
vt 0.500000 0.751095
vt 0.500000 0.810870
vt 0.631433 1.079827
vt 0.762866 0.691319
vt 0.500000 0.996951
vn -0.529200 0.848500 -0.009900
vn -0.429700 0.898500 -0.089500
vn -0.487800 0.777400 -0.397100
vn -0.591500 0.709000 -0.384100
vn 0.000000 0.817800 -0.575500
vn 0.000000 0.846700 -0.532100
vn 0.277800 0.937700 -0.208500
vn 0.429300 0.898700 -0.089500
vn 0.485500 0.778500 -0.397800
vn 0.237500 0.888100 -0.393600
vn 0.000000 0.878400 -0.477900
vn -0.237500 0.888100 -0.393600
vn -0.277800 0.937700 -0.208500
vn 0.004000 0.968500 0.249100
vn 0.002000 0.991500 0.130100
vn 0.000000 0.989800 -0.142400
vn 0.587100 0.711700 -0.385700
vn 0.528400 0.848900 -0.009900
vn 0.000000 0.937000 -0.349300
usemtl glass
s 1
f 1/1/1 33/2/2 42/3/3 32/4/4
f 8/5/5 32/4/4 42/3/3 36/6/6
f 13/7/7 35/8/8 41/9/9 37/10/10
f 14/11/11 36/6/6 42/3/3 39/12/12
f 14/11/11 37/10/10 41/9/9 36/6/6
f 15/13/13 39/12/12 42/3/3 33/2/2
f 31/14/14 43/15/15 33/2/2 1/1/1
f 33/2/2 43/15/15 38/16/16 15/13/13
f 34/17/17 41/9/9 35/8/8 2/18/18
f 35/8/8 43/15/15 31/14/14 2/18/18
f 36/6/6 41/9/9 34/17/17 8/5/5
f 37/10/10 40/19/19 38/16/16 13/7/7
f 38/16/16 40/19/19 39/12/12 15/13/13
f 38/16/16 43/15/15 35/8/8 13/7/7
f 39/12/12 40/19/19 37/10/10 14/11/11
o Icosahedron_Standard
v -0.184521 0.237316 0.148781
v 0.184521 0.237316 0.142575
v -0.191795 -0.164454 1.568500
v 0.191795 -0.164454 1.568500
v -0.000000 0.003893 1.926590
v -0.000000 0.265808 1.562983
v 0.000000 -0.077493 -0.819072
v 0.000000 0.075088 -0.476855
v 1.240651 -0.061510 0.858515
v 0.386533 0.104024 1.553210
v -1.240651 -0.061510 0.895748
v -0.386533 0.104024 1.559415
v 0.072252 0.281557 -0.012007
v 0.000000 0.160943 -0.322941
v -0.072252 0.281557 -0.012007
v -0.000000 -0.203421 1.568130
v -0.039265 -0.027982 1.162264
v -0.303490 -0.047551 1.569607
v 0.039265 -0.027982 1.162264
v 0.303490 -0.047551 1.569607
v -0.000000 0.059950 1.159465
v 0.063532 0.025473 1.162308
v -0.063532 0.025473 1.162308
v 0.187567 0.213257 1.565683
v -0.187567 0.213257 1.565683
v -0.042591 0.054172 1.169178
v 0.068914 -0.005009 1.171518
v -0.000000 -0.040469 1.170738
v 0.042591 0.054172 1.169178
v -0.068914 -0.005009 1.171518
v 0.000000 0.259887 0.337190
v -0.165132 0.136688 -0.232795
v -0.136186 0.280301 0.075374
v 0.165132 0.136688 -0.232795
v 0.136186 0.280301 0.075374
v 0.000000 0.095313 -0.448883
v 0.053619 0.208172 -0.214746
v 0.000000 0.305077 0.065450
v -0.053619 0.208172 -0.214746
v 0.000000 0.259523 -0.128670
v 0.108948 0.169308 -0.239180
v -0.108948 0.169308 -0.239180
v 0.000000 0.292018 0.180225
v 0.876268 0.212630 0.957157
v 0.324241 0.233066 1.373859
v 0.994094 -0.057650 2.108132
v 0.574986 0.336615 1.495483
v -0.876268 0.212630 0.981979
v -0.324241 0.233066 1.373859
v -0.994094 -0.057650 2.132954
v -0.574986 0.336615 1.512031
v -0.000000 0.033194 1.606741
v 0.034262 0.014772 1.607932
v -0.034262 0.014772 1.607932
v -0.021175 -0.014162 1.608120
v 0.021175 -0.014162 1.608120
v -0.023008 0.059268 1.164112
v -0.055323 0.041615 1.165789
v 0.057200 -0.017495 1.166932
v 0.069543 0.009623 1.167097
v 0.019972 -0.036615 1.166440
v -0.019972 -0.036615 1.166440
v 0.055323 0.041615 1.165789
v 0.023008 0.059268 1.164112
v -0.069543 0.009623 1.167097
v -0.057200 -0.017495 1.166932
v -0.027662 0.036001 1.463653
v 0.044758 -0.002381 1.465063
v -0.000000 -0.025500 1.464734
v 0.027662 0.036001 1.463653
v -0.044758 -0.002381 1.465063
v -0.093783 0.239492 1.564333
v -0.287050 0.158641 1.562549
v 0.247643 -0.106003 1.569053
v 0.345012 0.028236 1.561408
v 0.095898 -0.183937 1.568315
v -0.095898 -0.183937 1.568315
v 0.093783 0.239492 1.564333
v 0.287050 0.158641 1.559446
v -0.247643 -0.106003 1.569053
v -0.345012 0.028236 1.564511
vt 0.500000 0.823792
vt 0.750000 0.676208
vt 0.750000 0.823792
vt 0.669052 0.588104
vt 0.709526 0.632156
vt 1.000000 0.823792
vt 0.830948 0.588104
vt 0.955948 0.661896
vt 0.000000 0.823792
vt 0.044052 0.661896
vt 0.125000 0.750000
vt 1.044052 0.661896
vt 0.500000 0.176208
vt 0.250000 0.323792
vt 0.250000 0.176208
vt 0.375000 0.176208
vt 0.411896 0.500000
vt 0.522026 0.257156
vt 0.544052 0.338104
vt 0.000000 0.176208
vt 0.125000 0.176208
vt 0.790474 0.632156
vt 0.088104 0.500000
vt 0.250000 0.676208
vt 1.088104 0.500000
vt 0.955948 0.338104
vt 0.977974 0.257156
vt 1.000000 0.176208
vt 1.000000 0.500000
vt 0.911896 0.500000
vt 0.500000 0.500000
vt 0.375000 0.750000
vt 0.455948 0.661896
vt 0.933922 0.419052
vt 0.544052 0.661896
vt 0.588104 0.500000
vt 0.628578 0.544052
vt 1.000000 0.607931
vt 0.500000 0.607931
vt 0.871422 0.544052
vt 0.566078 0.419052
vn -0.131300 0.990300 -0.046600
vn -0.000000 1.000000 0.005600
vn -0.000200 1.000000 -0.004800
vn -0.210400 0.965600 0.152900
vn -0.269500 0.962900 0.015800
vn 0.130800 0.990300 -0.047500
vn 0.213800 0.964500 0.155000
vn -0.149600 0.950300 0.273100
vn 0.331800 0.935100 -0.124400
vn 0.520600 0.750000 -0.408100
vn -0.291600 -0.927800 0.232700
vn -0.003900 -0.933400 -0.358900
vn -0.000000 -0.998600 -0.052700
vn -0.198900 -0.978700 -0.051600
vn -0.979400 0.111300 -0.168300
vn -0.504500 -0.488800 0.711800
vn 0.051900 -0.614500 0.787200
vn 0.294900 -0.928700 0.224700
vn 0.198900 -0.978700 -0.051600
vn 0.269500 0.962900 0.015700
vn 0.977000 0.120900 -0.175800
vn -0.008500 0.804300 -0.594100
vn -0.033100 -0.616200 0.786900
vn 0.518200 -0.501600 0.692700
vn -0.099900 0.681000 0.725400
vn -0.189300 0.712100 0.676100
vn 0.120600 0.677500 0.725500
vn -0.533000 0.740500 -0.409200
vn -0.335500 0.934100 -0.122100
vn -0.563300 0.387600 0.729700
vn 0.154900 0.950500 0.269400
vn 0.203300 0.714600 0.669400
vn -0.450200 0.796800 0.403000
vn -0.080500 0.974000 0.212000
vn 0.087800 0.973100 0.213100
vn 0.458800 0.789100 0.408400
vn 0.584300 0.368700 0.722900
usemtl Standard
s 1
f 44/20/20 49/21/21 74/22/22
f 44/20/20 68/23/23 115/24/24 49/21/21
f 45/25/25 67/26/26 88/27/27
f 45/25/25 74/22/22 49/21/21
f 45/28/25 87/29/28 77/30/29
f 45/25/25 88/27/27 87/31/28
f 46/32/30 50/33/31 59/34/32 120/35/33
f 46/32/30 54/36/34 50/33/31
f 46/32/30 123/37/35 61/38/36 54/36/34
f 47/39/37 119/40/38 59/34/32 50/33/31
f 49/21/21 121/41/39 67/26/26 45/25/25
f 50/33/31 52/42/40 47/39/37
f 50/33/31 54/36/34 51/43/41
f 51/43/41 52/42/40 50/33/31
f 51/43/41 77/30/29 52/42/40
f 52/44/40 63/45/42 117/46/43 47/47/37
f 52/44/40 87/31/28 89/48/44
f 53/49/45 89/48/44 88/27/27
f 54/36/34 61/38/36 93/50/46
f 54/36/34 75/51/47 51/43/41
f 54/36/34 91/52/48 75/51/47
f 63/45/42 89/48/44 53/49/45 118/53/49
f 68/23/23 92/54/50 55/55/51 116/56/52
f 75/51/47 91/52/48 44/20/20
f 77/30/29 87/29/28 52/42/40
f 88/27/27 89/48/44 90/57/53
f 89/48/44 63/45/42 52/44/40
f 90/57/53 87/31/28 88/27/27
f 90/57/53 89/48/44 87/31/28
f 91/52/48 92/54/50 44/20/20
f 92/54/50 68/23/23 44/20/20
f 92/54/50 93/50/46 55/55/51
f 93/50/46 91/52/48 54/36/34
f 93/50/46 92/54/50 94/58/54
f 94/58/54 91/52/48 93/50/46
f 94/58/54 92/54/50 91/52/48
f 122/59/55 53/49/45 88/27/27 67/26/26
f 124/60/56 55/55/51 93/50/46 61/38/36
o Icosahedron_StandardSteel
v -0.191795 -0.164454 1.568500
v 0.191795 -0.164454 1.568500
v -0.000000 0.003893 2.659691
v -0.000000 0.265726 1.562983
v 0.000000 -0.077493 -0.819072
v 0.000000 0.075088 -0.476855
v 1.240651 -0.061510 0.858515
v 0.386533 0.104024 1.553210
v -1.240651 -0.061510 0.895748
v -0.386533 0.104024 1.559415
v 0.072252 0.281557 -0.012007
v 0.000000 0.160943 -0.322941
v -0.072252 0.281557 -0.012007
v -0.000000 -0.203421 1.568130
v -0.039265 -0.027982 1.339823
v -0.303490 -0.047551 1.569607
v 0.039265 -0.027982 1.339823
v 0.303490 -0.047551 1.569607
v -0.000000 0.059950 1.337024
v 0.063532 0.025473 1.339866
v -0.063532 0.025473 1.339866
v 0.187567 0.213257 1.565683
v -0.187567 0.213257 1.565683
v -0.042591 0.054172 1.346737
v 0.068914 -0.005009 1.349077
v -0.000000 -0.040469 1.348297
v 0.042591 0.054172 1.346737
v -0.068914 -0.005009 1.349077
v 0.000000 0.259887 0.337190
v -0.165132 0.136688 -0.232795
v -0.136186 0.280301 0.075374
v 0.165132 0.136688 -0.232795
v 0.136186 0.280301 0.075374
v 0.000000 0.095313 -0.448883
v 0.053619 0.208172 -0.214746
v 0.000000 0.305077 0.065450
v -0.053619 0.208172 -0.214746
v 0.000000 0.259523 -0.128670
v 0.108948 0.169308 -0.239180
v -0.108948 0.169308 -0.239180
v 0.000000 0.292018 0.180225
v 0.876268 0.212630 0.957157
v 0.324241 0.233066 0.851330
v 0.994094 -0.057650 2.108132
v 0.574986 0.336615 1.875761
v -0.876268 0.212630 0.981979
v -0.324241 0.233066 0.851330
v -0.994094 -0.057650 2.132954
v -0.574986 0.336615 1.892309
v -0.000000 0.033194 1.901825
v 0.034262 0.014772 1.903016
v -0.034262 0.014772 1.903016
v -0.021175 -0.014162 1.903204
v 0.021175 -0.014162 1.903204
v -0.023008 0.059268 1.341671
v -0.055323 0.041615 1.343348
v 0.057200 -0.017495 1.344491
v 0.069543 0.009623 1.344656
v 0.019972 -0.036615 1.343998
v -0.019972 -0.036615 1.343998
v 0.055323 0.041615 1.343348
v 0.023008 0.059268 1.341671
v -0.069543 0.009623 1.344656
v -0.057200 -0.017495 1.344491
v -0.027662 0.036001 1.615804
v 0.044758 -0.002381 1.617214
v -0.000000 -0.025500 1.453047
v 0.027662 0.036001 1.615804
v -0.044758 -0.002381 1.617214
v -0.093783 0.239492 1.564333
v -0.287050 0.158641 1.562549
v 0.247643 -0.106003 1.569053
v 0.345012 0.028236 1.561408
v 0.095898 -0.183937 1.568315
v -0.095898 -0.183937 1.568315
v 0.093783 0.239492 1.564333
v 0.287050 0.158641 1.559446
v -0.247643 -0.106003 1.569053
v -0.345012 0.028236 1.564511
vt 0.652655 -0.353868
vt 0.697105 -0.354308
vt 0.545527 -0.034250
vt 0.531252 -0.030535
vt 0.500000 -1.222374
vt 0.527270 -0.620118
vt 0.522017 -0.391519
vt 0.500000 -0.619170
vt 0.516854 -0.620267
vt 0.535624 -0.392641
vt 0.500000 -0.349477
vt 0.500000 -0.028307
vt 0.518313 -0.032006
vt 0.574645 -0.350551
vt 0.807651 -0.341698
vt 0.728470 -0.346662
vt 0.544033 -0.033340
vt 0.550567 -0.030570
vt 0.192349 -0.346637
vt 0.225397 -0.350693
vt 0.444649 -0.034381
vt 0.449433 -0.030570
vt 0.468748 -0.030535
vt 0.484104 -0.033858
vt 0.500000 -0.261976
vt 0.483146 -0.620267
vt 0.454473 -0.034250
vt 0.302895 -0.354308
vt 0.347345 -0.353868
vt 0.258445 -0.354749
vt 0.445150 -0.037900
vt 0.515896 -0.033858
vt 0.576327 -0.353721
vt 0.555351 -0.034381
vt 0.774603 -0.348224
vt 0.472730 -0.620118
vt 0.477983 -0.391519
vt 0.455967 -0.033340
vt 0.271530 -0.349132
vt 0.649289 -0.351626
vt 0.533899 -0.036038
vt 0.466101 -0.036038
vt 0.481687 -0.032006
vt 0.425355 -0.350551
vt 0.350711 -0.351626
vt 0.554850 -0.037900
vt 0.741555 -0.354749
vt 0.500000 -0.037280
vt 0.423673 -0.353721
vt 0.500000 -0.353574
vt 0.464376 -0.392641
vn -0.363900 0.675600 0.641200
vn -0.546700 0.502500 0.669700
vn 0.336300 -0.067500 0.939300
vn 0.042000 -0.273100 0.961100
vn 0.005100 -0.311900 0.950100
vn 0.933400 0.353200 0.062600
vn 0.481100 0.874600 0.061300
vn 0.000000 0.998700 0.051700
vn 0.474600 -0.879100 0.044200
vn 0.912500 -0.404300 0.062300
vn 0.000000 -0.741800 0.670600
vn 0.000000 0.312800 0.949800
vn 0.199700 0.258200 0.945200
vn -0.217800 -0.719500 0.659400
vn -0.528900 -0.160600 0.833400
vn -0.332100 -0.628400 0.703400
vn 0.294700 0.210000 0.932200
vn 0.420000 0.227400 0.878600
vn 0.537700 -0.166400 0.826600
vn 0.598200 0.333200 0.728800
vn -0.400300 0.119900 0.908500
vn -0.409000 0.221700 0.885200
vn -0.042000 -0.273100 0.961100
vn 0.183100 -0.276100 0.943500
vn -0.000000 -0.998100 0.061500
vn -0.474600 -0.879100 0.044200
vn -0.336300 -0.067500 0.939300
vn 0.546700 0.502500 0.669700
vn 0.363900 0.675600 0.641200
vn 0.581100 0.420100 0.697000
vn 0.162300 0.273000 0.948200
vn -0.183100 -0.276100 0.943500
vn -0.156900 0.796700 0.583700
vn 0.408500 0.142700 0.901600
vn -0.589400 0.353900 0.726200
vn -0.933400 0.353200 0.062600
vn -0.481100 0.874500 0.061300
vn -0.277900 0.220800 0.934900
vn 0.346500 -0.619800 0.704100
vn -0.280800 -0.679500 0.677800
vn -0.056900 -0.316200 0.947000
vn 0.066000 -0.310500 0.948300
vn -0.199700 0.258200 0.945200
vn 0.217800 -0.719500 0.659400
vn 0.287900 -0.675500 0.678900
vn -0.156900 0.285800 0.945400
vn -0.576500 0.430000 0.694800
vn -0.000000 0.423100 0.906100
vn 0.156900 0.796700 0.583700
vn 0.000000 0.808200 0.588900
vn -0.912500 -0.404300 0.062300
usemtl StandardSteel
s 1
f 126/61/57 196/62/58 181/63/59 141/64/60
f 127/65/61 175/66/62 192/67/63 174/68/64
f 127/65/61 178/69/65 190/70/66 175/66/62
f 128/71/67 143/72/68 186/73/69 200/74/70
f 132/75/71 201/76/72 185/77/73 144/78/74
f 134/79/75 203/80/76 187/81/77 145/82/78
f 139/83/79 184/84/80 191/85/81 177/86/82
f 139/83/79 188/87/83 202/88/84 125/89/85
f 140/90/86 152/91/87 187/81/77 203/80/76
f 140/90/86 202/88/84 188/87/83 152/91/87
f 141/64/60 181/63/59 190/70/66 178/69/65
f 141/64/60 183/92/88 198/93/89 126/61/57
f 143/72/68 174/68/64 192/67/63 186/73/69
f 144/78/74 175/66/62 190/70/66 182/94/90
f 144/78/74 182/94/90 197/95/91 132/75/71
f 145/82/78 176/96/92 189/97/93 180/98/94
f 145/82/78 180/98/94 195/99/95 134/79/75
f 146/100/96 151/101/97 185/77/73 201/76/72
f 146/100/96 200/74/70 186/73/69 151/101/97
f 148/102/98 179/103/99 194/104/100 147/105/101
f 148/102/98 180/98/94 189/97/93 179/103/99
f 149/106/102 181/63/59 196/62/58 142/107/103
f 149/106/102 182/94/90 190/70/66 181/63/59
f 150/108/104 184/84/80 199/109/105 138/110/106
f 151/101/97 186/73/69 192/67/63 185/77/73
f 152/91/87 188/87/83 193/111/107 187/81/77
f 174/68/64 189/97/93 176/96/92 127/65/61
f 176/96/92 193/111/107 177/86/82 127/65/61
f 177/86/82 191/85/81 178/69/65 127/65/61
f 177/86/82 193/111/107 188/87/83 139/83/79
f 178/69/65 191/85/81 183/92/88 141/64/60
f 179/103/99 189/97/93 174/68/64 143/72/68
f 183/92/88 191/85/81 184/84/80 150/108/104
f 185/77/73 192/67/63 175/66/62 144/78/74
f 187/81/77 193/111/107 176/96/92 145/82/78
f 194/104/100 179/103/99 143/72/68 128/71/67
f 195/99/95 180/98/94 148/102/98 147/105/101
f 197/95/91 182/94/90 149/106/102 142/107/103
f 198/93/89 183/92/88 150/108/104 138/110/106
f 199/109/105 184/84/80 139/83/79 125/89/85
