# Blender v2.74 (sub 0) OBJ File: ''
# www.blender.org
mtllib ship.mtl
o Icosahedron
v -0.262866 0.303295 -0.191319
v 0.262866 0.303295 -0.191319
v -0.262866 -0.425325 0.593058
v 0.262866 -0.425325 0.593058
v 0.000000 -0.262866 0.847328
v 0.000000 0.237958 0.847328
v 0.000000 -0.060444 -1.126765
v 0.000000 0.107181 -0.968335
v 0.943418 0.000000 0.290680
v 0.425325 0.000000 0.855924
v -0.943418 0.000000 0.330193
v -0.425325 0.000000 0.855924
v 0.083993 0.394687 -0.310870
v 0.000000 0.119643 -0.869114
v -0.083993 0.394687 -0.310870
vt 0.588104 0.500000
vt 0.750000 0.676208
vt 0.500000 0.823792
vt 1.000000 0.823792
vt 0.250000 0.676208
vt 0.411896 0.500000
vt 0.911896 0.500000
vt 0.500000 0.176208
vt 0.250000 0.323792
vt 0.000000 0.823792
vt 0.088104 0.500000
vt 0.750000 0.323792
vt 1.000000 0.176208
vt 0.000000 0.176208
vt 1.088104 0.500000
vt 0.583993 0.810870
vt 0.500000 1.369114
vt 0.416007 0.810870
vt 0.762866 0.691319
vt 0.500000 1.468335
vt 0.237134 0.691319
vn -0.577300 0.577400 0.577400
vn -0.577300 0.577300 0.577400
vn -0.427700 0.587800 0.686700
vn 0.000000 0.934200 0.356800
vn 0.290200 0.658300 0.694500
vn -0.130600 0.673200 0.727800
vn -0.291400 0.912800 -0.286200
vn -0.426800 0.847600 -0.315200
vn -0.214900 0.941100 -0.261000
vn -0.581900 0.576700 0.573400
vn -0.934200 0.356800 -0.000000
vn 0.577300 0.577300 0.577400
vn 0.850500 0.420200 0.316400
vn -0.581900 -0.576700 0.573400
vn -0.934200 -0.356800 0.000000
vn -0.934200 -0.356900 -0.000000
vn -0.434400 0.838400 -0.329300
vn 0.215000 0.941100 -0.261000
vn 0.426800 0.847600 -0.315300
vn 0.291400 0.912800 -0.286200
vn 0.577400 -0.577300 0.577300
vn 0.577400 -0.577400 0.577300
vn -0.000000 -0.934200 0.356800
vn 0.000000 -0.934200 -0.356800
vn -0.000000 -0.966900 -0.255000
vn -0.000000 -0.966900 -0.255100
vn 0.440900 -0.861400 -0.252200
vn 0.577300 -0.577400 -0.577300
vn 0.581900 -0.576700 0.573500
vn 0.934200 -0.356800 -0.000000
vn -0.577400 -0.577300 0.577300
vn -0.577400 -0.577400 0.577300
vn -0.577300 -0.577400 -0.577300
vn -0.440900 -0.861400 -0.252200
vn 0.434300 0.838400 -0.329300
vn 0.581900 0.576700 0.573400
vn 0.214900 0.941100 -0.261000
vn 0.000000 0.992200 -0.124600
vn -0.356800 -0.000000 0.934200
vn 0.356800 -0.000000 0.934200
usemtl Standard
s 1
f 12/1/1 6/2/2 1/3/3
f 6/2/4 2/4/5 1/3/6
f 8/5/7 11/6/8 1/3/9
f 11/6/10 12/1/11 1/3/3
f 6/2/12 10/7/13 2/4/5
f 11/6/14 3/8/15 12/1/16
f 8/5/7 7/9/17 11/6/8
f 2/10/18 9/11/19 8/5/20
f 10/7/21 5/12/21 4/13/22
f 5/12/23 3/8/23 4/13/23
f 3/8/24 7/9/25 4/14/24
f 7/9/26 9/11/27 4/14/28
f 9/15/29 10/7/30 4/13/30
f 5/12/31 12/1/31 3/8/32
f 3/8/33 11/6/34 7/9/25
f 7/9/35 8/5/20 9/11/19
f 9/15/36 2/4/5 10/7/13
usemtl glass
f 13/16/37 14/17/7 15/18/9
f 2/19/38 8/20/38 14/17/38 13/16/38
f 8/20/38 1/21/38 15/18/38 14/17/38
f 1/21/38 2/19/38 13/16/38 15/18/38
usemtl StandardSteel
f 12/1/39 5/12/39 6/2/39
f 10/7/40 6/2/40 5/12/40
